REM DIRINDEX 1\2\5,1\2\6,1\3\7,1\3\8,1\4\9,1\4\10
REM DIRNAME cjc079,folder01,folder02,folder03,folder04,folder05,folder06,folder07,folder08,folder09
TITLE ""
FILE "Track35.mp3" MP3
  TRACK 01 AUDIO
    TITLE "10:cjc079_1375"
    INDEX 01 00:00:00
  TRACK 02 AUDIO
    TITLE "10:cjc079_1376"
    INDEX 01 00:02:10
  TRACK 03 AUDIO
    TITLE "9:cjc079_1377"
    INDEX 01 00:04:33
  TRACK 04 AUDIO
    TITLE "0:"
    INDEX 01 00:05:61
  TRACK 05 AUDIO
    TITLE "9:cjc079_1378"
    INDEX 01 00:06:31
  TRACK 06 AUDIO
    TITLE "0:"
    INDEX 01 00:07:60
  TRACK 07 AUDIO
    TITLE "10:cjc079_1379"
    INDEX 01 00:09:32
  TRACK 08 AUDIO
    TITLE "9:cjc079_1380"
    INDEX 01 00:11:07
  TRACK 09 AUDIO
    TITLE "0:"
    INDEX 01 00:12:34
  TRACK 10 AUDIO
    TITLE "9:cjc079_1381"
    INDEX 01 00:13:08
  TRACK 11 AUDIO
    TITLE "0:"
    INDEX 01 00:14:37
  TRACK 12 AUDIO
    TITLE "10:cjc079_1382"
    INDEX 01 00:16:10
  TRACK 13 AUDIO
    TITLE "9:cjc079_1383"
    INDEX 01 00:18:05
  TRACK 14 AUDIO
    TITLE "0:"
    INDEX 01 00:19:28
  TRACK 15 AUDIO
    TITLE "9:cjc079_1384"
    INDEX 01 00:19:73
  TRACK 16 AUDIO
    TITLE "0:"
    INDEX 01 00:21:23
  TRACK 17 AUDIO
    TITLE "10:cjc079_1385"
    INDEX 01 00:22:68
  TRACK 18 AUDIO
    TITLE "9:cjc079_1386"
    INDEX 01 00:24:59
  TRACK 19 AUDIO
    TITLE "0:"
    INDEX 01 00:26:13
  TRACK 20 AUDIO
    TITLE "9:cjc079_1387"
    INDEX 01 00:26:64
  TRACK 21 AUDIO
    TITLE "0:"
    INDEX 01 00:28:19
  TRACK 22 AUDIO
    TITLE "10:cjc079_1388"
    INDEX 01 00:29:70
  TRACK 23 AUDIO
    TITLE "9:cjc079_1389"
    INDEX 01 00:31:65
  TRACK 24 AUDIO
    TITLE "0:"
    INDEX 01 00:33:24
  TRACK 25 AUDIO
    TITLE "9:cjc079_1390"
    INDEX 01 00:33:68
  TRACK 26 AUDIO
    TITLE "0:"
    INDEX 01 00:35:29
  TRACK 27 AUDIO
    TITLE "10:cjc079_1391"
    INDEX 01 00:37:01
  TRACK 28 AUDIO
    TITLE "9:cjc079_1392"
    INDEX 01 00:39:00
  TRACK 29 AUDIO
    TITLE "0:"
    INDEX 01 00:40:46
  TRACK 30 AUDIO
    TITLE "9:cjc079_1393"
    INDEX 01 00:41:18
  TRACK 31 AUDIO
    TITLE "0:"
    INDEX 01 00:42:65
  TRACK 32 AUDIO
    TITLE "10:cjc079_1394"
    INDEX 01 00:44:38
  TRACK 33 AUDIO
    TITLE "9:cjc079_1395"
    INDEX 01 00:46:27
  TRACK 34 AUDIO
    TITLE "0:"
    INDEX 01 00:47:52
  TRACK 35 AUDIO
    TITLE "9:cjc079_1396"
    INDEX 01 00:48:22
  TRACK 36 AUDIO
    TITLE "0:"
    INDEX 01 00:49:49
  TRACK 37 AUDIO
    TITLE "10:cjc079_1397"
    INDEX 01 00:51:20
  TRACK 38 AUDIO
    TITLE "9:cjc079_1398"
    INDEX 01 00:53:23
  TRACK 39 AUDIO
    TITLE "0:"
    INDEX 01 00:54:46
  TRACK 40 AUDIO
    TITLE "9:cjc079_1399"
    INDEX 01 00:55:26
  TRACK 41 AUDIO
    TITLE "0:"
    INDEX 01 00:56:53
  TRACK 42 AUDIO
    TITLE "10:cjc079_1400"
    INDEX 01 00:58:32
  TRACK 43 AUDIO
    TITLE "9:cjc079_1401"
    INDEX 01 01:00:31
  TRACK 44 AUDIO
    TITLE "0:"
    INDEX 01 01:01:70
  TRACK 45 AUDIO
    TITLE "9:cjc079_1402"
    INDEX 01 01:02:42
  TRACK 46 AUDIO
    TITLE "0:"
    INDEX 01 01:04:07
  TRACK 47 AUDIO
    TITLE "10:cjc079_1403"
    INDEX 01 01:05:52
  TRACK 48 AUDIO
    TITLE "9:cjc079_1404"
    INDEX 01 01:07:59
  TRACK 49 AUDIO
    TITLE "0:"
    INDEX 01 01:09:14
  TRACK 50 AUDIO
    TITLE "9:cjc079_1405"
    INDEX 01 01:09:63
  TRACK 51 AUDIO
    TITLE "0:"
    INDEX 01 01:11:19
  TRACK 52 AUDIO
    TITLE "10:cjc079_1406"
    INDEX 01 01:12:68
  TRACK 53 AUDIO
    TITLE "9:cjc079_1407"
    INDEX 01 01:15:05
  TRACK 54 AUDIO
    TITLE "0:"
    INDEX 01 01:16:46
  TRACK 55 AUDIO
    TITLE "9:cjc079_1408"
    INDEX 01 01:17:12
  TRACK 56 AUDIO
    TITLE "0:"
    INDEX 01 01:18:54
  TRACK 57 AUDIO
    TITLE "10:cjc079_1409"
    INDEX 01 01:20:24
  TRACK 58 AUDIO
    TITLE "9:cjc079_1410"
    INDEX 01 01:22:21
  TRACK 59 AUDIO
    TITLE "0:"
    INDEX 01 01:23:71
  TRACK 60 AUDIO
    TITLE "9:cjc079_1411"
    INDEX 01 01:24:47
  TRACK 61 AUDIO
    TITLE "0:"
    INDEX 01 01:26:19
  TRACK 62 AUDIO
    TITLE "10:cjc079_1412"
    INDEX 01 01:27:73
  TRACK 63 AUDIO
    TITLE "9:cjc079_1413"
    INDEX 01 01:30:24
  TRACK 64 AUDIO
    TITLE "0:"
    INDEX 01 01:31:67
  TRACK 65 AUDIO
    TITLE "9:cjc079_1414"
    INDEX 01 01:32:37
  TRACK 66 AUDIO
    TITLE "0:"
    INDEX 01 01:34:05
  TRACK 67 AUDIO
    TITLE "10:cjc079_1415"
    INDEX 01 01:35:51
  TRACK 68 AUDIO
    TITLE "9:cjc079_1416"
    INDEX 01 01:37:56
  TRACK 69 AUDIO
    TITLE "0:"
    INDEX 01 01:39:15
  TRACK 70 AUDIO
    TITLE "9:cjc079_1417"
    INDEX 01 01:39:63
  TRACK 71 AUDIO
    TITLE "0:"
    INDEX 01 01:41:22
  TRACK 72 AUDIO
    TITLE "10:cjc079_1418"
    INDEX 01 01:42:73
  TRACK 73 AUDIO
    TITLE "9:cjc079_1419"
    INDEX 01 01:45:12
  TRACK 74 AUDIO
    TITLE "0:"
    INDEX 01 01:46:55
  TRACK 75 AUDIO
    TITLE "9:cjc079_1420"
    INDEX 01 01:47:29
  TRACK 76 AUDIO
    TITLE "0:"
    INDEX 01 01:48:73
  TRACK 77 AUDIO
    TITLE "10:cjc079_1421"
    INDEX 01 01:50:47
  TRACK 78 AUDIO
    TITLE "9:cjc079_1422"
    INDEX 01 01:52:65
  TRACK 79 AUDIO
    TITLE "0:"
    INDEX 01 01:54:19
  TRACK 80 AUDIO
    TITLE "9:cjc079_1423"
    INDEX 01 01:55:01
  TRACK 81 AUDIO
    TITLE "0:"
    INDEX 01 01:56:28
  TRACK 82 AUDIO
    TITLE "10:cjc079_1424"
    INDEX 01 01:58:09
  TRACK 83 AUDIO
    TITLE "9:cjc079_1425"
    INDEX 01 02:00:20
  TRACK 84 AUDIO
    TITLE "0:"
    INDEX 01 02:01:58
  TRACK 85 AUDIO
    TITLE "9:cjc079_1426"
    INDEX 01 02:02:36
  TRACK 86 AUDIO
    TITLE "0:"
    INDEX 01 02:04:02
  TRACK 87 AUDIO
    TITLE "10:cjc079_1427"
    INDEX 01 02:05:58
  TRACK 88 AUDIO
    TITLE "9:cjc079_1428"
    INDEX 01 02:08:05
  TRACK 89 AUDIO
    TITLE "0:"
    INDEX 01 02:09:58
  TRACK 90 AUDIO
    TITLE "9:cjc079_1429"
    INDEX 01 02:10:34
  TRACK 91 AUDIO
    TITLE "0:"
    INDEX 01 02:12:13
  TRACK 92 AUDIO
    TITLE "10:cjc079_1430"
    INDEX 01 02:13:59
  TRACK 93 AUDIO
    TITLE "9:cjc079_1431"
    INDEX 01 02:16:03
  TRACK 94 AUDIO
    TITLE "0:"
    INDEX 01 02:17:32
  TRACK 95 AUDIO
    TITLE "9:cjc079_1432"
    INDEX 01 02:18:00
  TRACK 96 AUDIO
    TITLE "0:"
    INDEX 01 02:19:29
  TRACK 97 AUDIO
    TITLE "10:cjc079_1433"
    INDEX 01 02:21:00
  TRACK 98 AUDIO
    TITLE "9:cjc079_1434"
    INDEX 01 02:23:25
  TRACK 99 AUDIO
    TITLE "0:"
    INDEX 01 02:24:59
  TRACK 100 AUDIO
    TITLE "9:cjc079_1435"
    INDEX 01 02:25:31
  TRACK 101 AUDIO
    TITLE "0:"
    INDEX 01 02:26:64
  TRACK 102 AUDIO
    TITLE "10:cjc079_1436"
    INDEX 01 02:28:37
  TRACK 103 AUDIO
    TITLE "9:cjc079_1437"
    INDEX 01 02:30:62
  TRACK 104 AUDIO
    TITLE "0:"
    INDEX 01 02:32:24
  TRACK 105 AUDIO
    TITLE "9:cjc079_1438"
    INDEX 01 02:32:71
  TRACK 106 AUDIO
    TITLE "0:"
    INDEX 01 02:34:28
  TRACK 107 AUDIO
    TITLE "10:cjc079_1439"
    INDEX 01 02:36:02
  TRACK 108 AUDIO
    TITLE "9:cjc079_1440"
    INDEX 01 02:38:06
  TRACK 109 AUDIO
    TITLE "0:"
    INDEX 01 02:39:55
  TRACK 110 AUDIO
    TITLE "9:cjc079_1441"
    INDEX 01 02:40:25
  TRACK 111 AUDIO
    TITLE "0:"
    INDEX 01 02:41:73
  TRACK 112 AUDIO
    TITLE "10:cjc079_1442"
    INDEX 01 02:43:43
  TRACK 113 AUDIO
    TITLE "9:cjc079_1443"
    INDEX 01 02:45:73
  TRACK 114 AUDIO
    TITLE "0:"
    INDEX 01 02:47:35
  TRACK 115 AUDIO
    TITLE "9:cjc079_1444"
    INDEX 01 02:48:03
  TRACK 116 AUDIO
    TITLE "0:"
    INDEX 01 02:49:38
  TRACK 117 AUDIO
    TITLE "10:cjc079_1445"
    INDEX 01 02:51:07
  TRACK 118 AUDIO
    TITLE "9:cjc079_1446"
    INDEX 01 02:53:35
  TRACK 119 AUDIO
    TITLE "0:"
    INDEX 01 02:54:74
  TRACK 120 AUDIO
    TITLE "9:cjc079_1447"
    INDEX 01 02:55:46
  TRACK 121 AUDIO
    TITLE "0:"
    INDEX 01 02:57:08
  TRACK 122 AUDIO
    TITLE "10:cjc079_1448"
    INDEX 01 02:58:50
  TRACK 123 AUDIO
    TITLE "9:cjc079_1449"
    INDEX 01 03:01:09
  TRACK 124 AUDIO
    TITLE "0:"
    INDEX 01 03:02:46
  TRACK 125 AUDIO
    TITLE "9:cjc079_1450"
    INDEX 01 03:03:22
  TRACK 126 AUDIO
    TITLE "0:"
    INDEX 01 03:04:55
  TRACK 127 AUDIO
    TITLE "10:cjc079_1451"
    INDEX 01 03:06:32
  TRACK 128 AUDIO
    TITLE "9:cjc079_1452"
    INDEX 01 03:08:62
  TRACK 129 AUDIO
    TITLE "0:"
    INDEX 01 03:10:22
  TRACK 130 AUDIO
    TITLE "9:cjc079_1453"
    INDEX 01 03:10:73
  TRACK 131 AUDIO
    TITLE "0:"
    INDEX 01 03:12:31
